<svg width="41" height="41" xmlns="http://www.w3.org/2000/svg" xmlns:xlink="http://www.w3.org/1999/xlink" xmlns:svgjs="http://svgjs.com/svgjs" viewBox="89 403 41 41"><svg width="41" height="41" xmlns="http://www.w3.org/2000/svg" xmlns:xlink="http://www.w3.org/1999/xlink" xmlns:svgjs="http://svgjs.com/svgjs" fill="#00b14f" x="89" y="403"><svg xmlns="http://www.w3.org/2000/svg" xmlns:xlink="http://www.w3.org/1999/xlink" width="41" height="41" viewBox="0.25 0.1 40 40"><path paint-order="stroke fill markers" fill-rule="evenodd" d="M40.25 20.1c0 11.06-8.94 20-20 20s-20-8.94-20-20 8.94-20 20-20 20 8.94 20 20z"/></svg></svg><svg width="13" height="15" xmlns="http://www.w3.org/2000/svg" xmlns:xlink="http://www.w3.org/1999/xlink" xmlns:svgjs="http://svgjs.com/svgjs" viewBox="0.25 0 12.5 15" fill="#fff" x="96" y="418"><svg xmlns="http://www.w3.org/2000/svg" xmlns:xlink="http://www.w3.org/1999/xlink" width="13" height="15" viewBox="0.837 0.135 12.163 14.596"><path paint-order="stroke fill markers" fill-rule="evenodd" d="M13 3.19a.592.592 0 0 0-.329-.536L8.404.52A3.671 3.671 0 0 0 6.772.135H3.675A2.841 2.841 0 0 0 .837 2.973v4.054c0 .67.545 1.216 1.216 1.216V2.162h.811v11.757a.812.812 0 0 0 1.622 0V6.216h.81v7.703a.812.812 0 0 0 1.622 0V1.756h.9L12.16 3.73A.595.595 0 0 0 13 3.19z"/></svg></svg><svg width="6" height="6" xmlns="http://www.w3.org/2000/svg" xmlns:xlink="http://www.w3.org/1999/xlink" xmlns:svgjs="http://svgjs.com/svgjs" fill="#fff" x="98" y="411"><svg xmlns="http://www.w3.org/2000/svg" xmlns:xlink="http://www.w3.org/1999/xlink" width="6" height="6" viewBox="0 1 5 5"><path paint-order="stroke fill markers" fill-rule="evenodd" d="M2.5 6A2.498 2.498 0 0 1 0 3.5C0 2.117 1.118 1 2.5 1S5 2.117 5 3.5C5 4.882 3.882 6 2.5 6z"/></svg></svg><svg width="14" height="12" xmlns="http://www.w3.org/2000/svg" xmlns:xlink="http://www.w3.org/1999/xlink" xmlns:svgjs="http://svgjs.com/svgjs" viewBox="0.058 0 13.884 12" fill="#fff" x="108" y="422"><svg xmlns="http://www.w3.org/2000/svg" width="14" height="12" viewBox="0.288 0.413 12.876 11.128"><path paint-order="stroke fill markers" fill-rule="evenodd" d="M2.622 7.487H12.272l.882-3.966.01-.9H1.732L1.083.414a1.39 1.39 0 0 1-.677.181c-.04 0-.08-.01-.118-.012l.6 2.04L2.113 6.79a1.214 1.214 0 0 0-.709 1.101c0 .486.29.903.702 1.098a1.61 1.61 0 0 0-.296.93c0 .894.727 1.621 1.622 1.621.894 0 1.621-.727 1.621-1.622 0-.297-.086-.57-.225-.81h4.505c-.14.24-.225.513-.225.81 0 .895.727 1.622 1.621 1.622.895 0 1.622-.727 1.622-1.622 0-.894-.727-1.621-1.622-1.621H2.622a.406.406 0 0 1 0-.811zm6.487-3.244h.81v1.622h-.81V4.243zm-2.433 0h.811v1.622h-.811V4.243zm-2.433 0h.811v1.622h-.81V4.243z"/></svg></svg></svg>