<svg width="20" height="16" xmlns="http://www.w3.org/2000/svg" xmlns:xlink="http://www.w3.org/1999/xlink" xmlns:svgjs="http://svgjs.com/svgjs" viewBox="271 80 20 16"><svg width="14" height="3" xmlns="http://www.w3.org/2000/svg" xmlns:xlink="http://www.w3.org/1999/xlink" xmlns:svgjs="http://svgjs.com/svgjs" viewBox="0 0.5 14 1.999" fill="#161616" x="274" y="93"><svg xmlns="http://www.w3.org/2000/svg" xmlns:xlink="http://www.w3.org/1999/xlink" width="14" height="3" viewBox="0.602 0.98 12.945 1.849"><path paint-order="stroke fill markers" fill-rule="evenodd" d="M1.252.98h11.645c.36 0 .65.291.65.65v.549c0 .359-.29.65-.65.65H1.252a.65.65 0 0 1-.65-.65V1.63c0-.359.29-.65.65-.65z"/></svg></svg><svg width="20" height="14" xmlns="http://www.w3.org/2000/svg" xmlns:xlink="http://www.w3.org/1999/xlink" xmlns:svgjs="http://svgjs.com/svgjs" viewBox="0 0.437 20 13.125" fill="#161616" x="271" y="80"><svg xmlns="http://www.w3.org/2000/svg" width="20" height="14" viewBox="0.769 0.973 18.462 12.116"><path paint-order="stroke fill markers" fill-rule="evenodd" d="M17.924 4.731c-.788 0-1.427.64-1.427 1.428.003.197.047.391.129.57l-2.091 1.257a.928.928 0 0 1-1.278-.336l-2.355-4.124a1.428 1.428 0 1 0-1.755 0L6.792 7.65a.928.928 0 0 1-1.278.336L3.424 6.73a1.37 1.37 0 0 0 .128-.571 1.392 1.392 0 1 0-1.328 1.356c.076.007.153.007.229 0l2.09 5.573h11.083l2.084-5.573h.229a1.392 1.392 0 0 0 0-2.776l-.015-.008z"/></svg></svg></svg>