<svg id="Layer_2" data-name="Layer 2" xmlns="http://www.w3.org/2000/svg" width="152" height="24.669" viewBox="0 0 152 24.669">
  <g id="Layer_1" data-name="Layer 1">
    <path id="Path_1998" data-name="Path 1998" d="M175.388,5.589,169.607,0H164.88l1.691,3.721.846,1.86Z" transform="translate(-137.321)" fill="#00b14f"/>
    <path id="Path_1999" data-name="Path 1999" d="M129.2,52.41l-2.093,3.856L143.873,40.06l-7.961-.01Z" transform="translate(-105.864 -33.356)" fill="#00b14f"/>
    <path id="Path_2000" data-name="Path 2000" d="M187.731,40.06h0l-7.961-.01h0Z" transform="translate(-149.722 -33.356)" fill="#00b14f"/>
    <path id="Path_2001" data-name="Path 2001" d="M7.391,5.566h.572L10.493,0H5.766L0,5.576H7.373Z" fill="#00b14f"/>
    <path id="Path_2002" data-name="Path 2002" d="M5.952,40H.17L16.948,56.213l-3.589-6.6L8.138,40Z" transform="translate(-0.142 -33.314)" fill="#00b14f"/>
    <path id="Path_2003" data-name="Path 2003" d="M16.19,44.78Z" transform="translate(-13.484 -37.295)" fill="#00b14f"/>
    <path id="Path_2004" data-name="Path 2004" d="M21.14,44.77Z" transform="translate(-17.607 -37.287)" fill="#00b14f"/>
    <path id="Path_2005" data-name="Path 2005" d="M34.64,40Z" transform="translate(-28.85 -33.314)" fill="#00b14f"/>
    <path id="Path_2006" data-name="Path 2006" d="M70.182,40H55.4l5.563,10.246,4.2,7.737L69.5,50l5.422-9.989Z" transform="translate(-46.14 -33.314)" fill="#00b14f"/>
    <path id="Path_2007" data-name="Path 2007" d="M55.42,39.97l5.563,10.246L55.42,39.97Z" transform="translate(-46.157 -33.289)" fill="#00b14f"/>
    <path id="Path_2008" data-name="Path 2008" d="M71.816,5.576h2.862L72.142,0H57.524L56.367,2.547,55,5.566C60.257,5.564,65.657,5.569,71.816,5.576Z" transform="translate(-45.807)" fill="#00b14f"/>
    <path id="Path_2009" data-name="Path 2009" d="M56.342,15.24,54.97,18.259h0Z" transform="translate(-45.782 -12.693)" fill="#00b14f"/>
    <path id="Path_2010" data-name="Path 2010" d="M55,33.3h1.371c4.83,0,9.821,0,15.446.01C65.657,33.3,60.257,33.3,55,33.3Z" transform="translate(-45.807 -27.732)" fill="#00b14f"/>
    <path id="Path_2011" data-name="Path 2011" d="M54.97,33.3Z" transform="translate(-45.782 -27.734)" fill="#00b14f"/>
    <rect id="Rectangle_1285" data-name="Rectangle 1285" width="27.955" height="12.17" rx="6.085" transform="translate(124.045 1.432)" fill="#00b14f"/>
    <path id="Path_2012" data-name="Path 2012" d="M764.048,55.527a.568.568,0,0,1,.167.413.592.592,0,0,1-.167.425.524.524,0,0,1-.4.167.515.515,0,0,1-.393-.167.6.6,0,0,1-.157-.42.574.574,0,0,1,.157-.413.565.565,0,0,1,.792,0Z" transform="translate(-635.55 -46.115)" fill="#fff"/>
    <path id="Path_2013" data-name="Path 2013" d="M777.135,28.718a1.92,1.92,0,0,0-1.79.057,1.817,1.817,0,0,0-.687.687,1.987,1.987,0,0,0,0,1.932,1.872,1.872,0,0,0,1.65.949,2.018,2.018,0,0,0,.812-.177,2.329,2.329,0,0,0,.724-.5l.638.712a3.387,3.387,0,0,1-1.034.715,2.943,2.943,0,0,1-1.2.274,2.974,2.974,0,0,1-1.5-.388,2.842,2.842,0,0,1-1.067-1.056,2.875,2.875,0,0,1-.389-1.474,2.808,2.808,0,0,1,.4-1.471,2.841,2.841,0,0,1,1.08-1.043,3.13,3.13,0,0,1,2.715-.144,2.939,2.939,0,0,1,.994.669l-.63.792a2.13,2.13,0,0,0-.709-.533Z" transform="translate(-644.038 -22.944)" fill="#fff"/>
    <path id="Path_2014" data-name="Path 2014" d="M810.831,27.961a2.883,2.883,0,0,1,0,5.044,3.219,3.219,0,0,1-3.064,0,2.873,2.873,0,0,1,0-5.044,3.269,3.269,0,0,1,3.064,0Zm-2.479.836a1.94,1.94,0,0,0-.7,2.649,1.957,1.957,0,0,0,.7.717,1.878,1.878,0,0,0,1.9,0,1.9,1.9,0,0,0,.69-.7,1.991,1.991,0,0,0,0-1.952,1.873,1.873,0,0,0-.69-.7,1.838,1.838,0,0,0-.946-.254,1.9,1.9,0,0,0-.963.247Z" transform="translate(-671.507 -22.97)" fill="#fff"/>
    <path id="Path_2015" data-name="Path 2015" d="M848.1,28h1.237l1.875,3.645L853.076,28h1.237v5.661h-.995V29.6l-1.762,3.477h-.7L849.086,29.6v4.058H848.1Z" transform="translate(-706.344 -23.32)" fill="#fff"/>
    <path id="Path_2016" data-name="Path 2016" d="M479,15.82h2.066l2.957,7.908,2.985-7.908h1.981l-4.012,10.047h-2Z" transform="translate(-398.938 -13.176)" fill="#161920"/>
    <path id="Path_2017" data-name="Path 2017" d="M553.423,15.82h1.865V25.867h-1.822L548.3,18.949v6.918h-1.88V15.82h1.822l5.181,6.931Z" transform="translate(-455.089 -13.176)" fill="#161920"/>
    <path id="Path_2018" data-name="Path 2018" d="M608.227,15.82h2.253l2.31,3.3,2.31-3.3h2.283l-3.366,4.809,3.659,5.238h-2.322l-2.564-3.589-2.54,3.589H608l3.614-5.153Z" transform="translate(-506.376 -13.176)" fill="#161920"/>
    <path id="Path_2019" data-name="Path 2019" d="M683.669,25.867h-2.31L678.2,21.561l-1.58,1.737v2.569H674.7V15.82h1.922v5.014l4.536-5.014h2.266l-3.859,4.249Z" transform="translate(-561.927 -13.176)" fill="#161920"/>
    <path id="Path_2020" data-name="Path 2020" d="M258.347,16.5a2.153,2.153,0,0,1,.926,1.839,2.2,2.2,0,0,1-1.752,2.225,2.594,2.594,0,0,1,1.573.861,2.521,2.521,0,0,1,.567,1.671,2.385,2.385,0,0,1-1,2.031,4.484,4.484,0,0,1-2.719.74H251.35V15.82h4.463A4.217,4.217,0,0,1,258.347,16.5Zm-1.464,3.1a1.1,1.1,0,0,0,.426-.918,1.048,1.048,0,0,0-.425-.891,1.875,1.875,0,0,0-1.17-.3h-2.44v2.44h2.439A1.855,1.855,0,0,0,256.883,19.594Zm.259,4.264a1.155,1.155,0,0,0,.517-1,1.108,1.108,0,0,0-.517-.971,2.43,2.43,0,0,0-1.436-.334h-2.432v2.658h2.439A2.446,2.446,0,0,0,257.142,23.858Z" transform="translate(-209.338 -13.176)" fill="#161920"/>
    <path id="Path_2021" data-name="Path 2021" d="M317.674,30v7.677H315.8V36.256a2.765,2.765,0,0,1-2.674,1.493,2.669,2.669,0,0,1-2.038-.791,3.007,3.007,0,0,1-.747-2.153V30h1.88v4.262a1.753,1.753,0,0,0,.438,1.264,1.593,1.593,0,0,0,1.212.458,1.775,1.775,0,0,0,1.407-.635,2.356,2.356,0,0,0,.522-1.561V30Z" transform="translate(-258.468 -24.986)" fill="#161920"/>
    <path id="Path_2022" data-name="Path 2022" d="M370.1,14.547a3.534,3.534,0,0,1,1.421,1.369,4,4,0,0,1,.5,2.031,4.059,4.059,0,0,1-.5,2.053,3.537,3.537,0,0,1-1.421,1.379,4.4,4.4,0,0,1-2.1.488,4.472,4.472,0,0,1-2.124-.488A3.51,3.51,0,0,1,364.455,20a4.043,4.043,0,0,1-.51-2.053,3.983,3.983,0,0,1,.51-2.031,3.51,3.51,0,0,1,1.427-1.369,4.453,4.453,0,0,1,2.124-.488A4.383,4.383,0,0,1,370.1,14.547ZM370.456,13h-1.672l-.789-.9-.791.9h-1.671l1.551-2.066h1.809Zm-4.033,3.294a2.365,2.365,0,0,0-.6,1.68,2.36,2.36,0,0,0,.6,1.671A2.059,2.059,0,0,0,368,20.3a2.024,2.024,0,0,0,1.549-.647,2.355,2.355,0,0,0,.6-1.671,2.358,2.358,0,0,0-.6-1.693A2.022,2.022,0,0,0,368,15.645a2.057,2.057,0,0,0-1.579.645Z" transform="translate(-303.113 -9.103)" fill="#161920"/>
    <path id="Path_2023" data-name="Path 2023" d="M428.753,30.38a3,3,0,0,1,.76,2.161v4.794h-1.88V33.087a1.735,1.735,0,0,0-.46-1.27,1.671,1.671,0,0,0-1.249-.466,1.9,1.9,0,0,0-1.471.632,2.313,2.313,0,0,0-.538,1.578v3.776H422.05V29.658h1.865v1.436a2.9,2.9,0,0,1,2.756-1.5A2.731,2.731,0,0,1,428.753,30.38Z" transform="translate(-351.507 -24.644)" fill="#161920"/>
    <path id="Path_2024" data-name="Path 2024" d="M250.255,100h.827l1.855,3.567L254.776,100h.836v5.081h-.654V101.03l-1.805,3.51h-.438l-1.82-3.51v4.052h-.645Z" transform="translate(-208.422 -83.286)" fill="#161920"/>
    <path id="Path_2025" data-name="Path 2025" d="M291.35,107.54a1.784,1.784,0,0,1,.7.685,1.985,1.985,0,0,1,.249,1,2.006,2.006,0,0,1-.249,1,1.771,1.771,0,0,1-.7.689,2.071,2.071,0,0,1-1.018.246,2.1,2.1,0,0,1-1.026-.246,1.78,1.78,0,0,1-.7-.685,2.151,2.151,0,0,1,0-2.016,1.79,1.79,0,0,1,.7-.685,2.1,2.1,0,0,1,1.026-.246,2.071,2.071,0,0,1,1.018.252Zm-1.688.515a1.21,1.21,0,0,0-.456.483,1.472,1.472,0,0,0-.167.7,1.505,1.505,0,0,0,.167.71,1.169,1.169,0,0,0,.456.483,1.31,1.31,0,0,0,.669.167,1.3,1.3,0,0,0,.669-.167,1.17,1.17,0,0,0,.456-.483,1.507,1.507,0,0,0,.167-.71,1.473,1.473,0,0,0-.167-.7,1.211,1.211,0,0,0-.456-.483,1.28,1.28,0,0,0-.669-.167A1.3,1.3,0,0,0,289.662,108.055Zm.978,3.756a.465.465,0,0,1,0,.623.428.428,0,0,1-.6,0,.468.468,0,0,1,0-.623A.428.428,0,0,1,290.64,111.811Z" transform="translate(-240.162 -89.355)" fill="#161920"/>
    <path id="Path_2026" data-name="Path 2026" d="M317.751,98.432a.431.431,0,0,1,.119.311.438.438,0,0,1-.119.313.4.4,0,0,1-.3.122.4.4,0,0,1-.3-.122.433.433,0,0,1-.12-.313.426.426,0,0,1,.12-.311.393.393,0,0,1,.3-.124A.4.4,0,0,1,317.751,98.432Zm-.635,1.406h.669v3.834h-.669Z" transform="translate(-264.039 -81.877)" fill="#161920"/>
    <path id="Path_2027" data-name="Path 2027" d="M346.812,107.717a1.523,1.523,0,0,1,.378,1.088v2.37h-.682v-2.19a1.058,1.058,0,0,0-.264-.761.965.965,0,0,0-.729-.276,1.1,1.1,0,0,0-.856.384,1.427,1.427,0,0,0-.311.949v1.892h-.682v-2.19a1.063,1.063,0,0,0-.261-.761.96.96,0,0,0-.732-.276,1.117,1.117,0,0,0-.859.384,1.412,1.412,0,0,0-.316.949v1.892h-.669v-3.834h.669v.8a1.649,1.649,0,0,1,2.308-.572,1.245,1.245,0,0,1,.476.71,1.452,1.452,0,0,1,1.493-.964,1.356,1.356,0,0,1,1.036.4Z" transform="translate(-283.862 -89.38)" fill="#161920"/>
    <path id="Path_2028" data-name="Path 2028" d="M386.81,95.641a1.784,1.784,0,0,1,.7.685,2.006,2.006,0,0,1,.249,1,2.026,2.026,0,0,1-.249,1,1.77,1.77,0,0,1-.7.689,2.248,2.248,0,0,1-2.044,0,1.768,1.768,0,0,1-.7-.685,2.151,2.151,0,0,1,0-2.016,1.781,1.781,0,0,1,.7-.685,2.248,2.248,0,0,1,2.044,0Zm-1.688.515a1.214,1.214,0,0,0-.458.483,1.471,1.471,0,0,0-.167.7,1.5,1.5,0,0,0,.167.71,1.17,1.17,0,0,0,.458.483,1.389,1.389,0,0,0,1.337,0,1.169,1.169,0,0,0,.456-.483,1.5,1.5,0,0,0,.167-.71,1.471,1.471,0,0,0-.167-.7,1.209,1.209,0,0,0-.456-.483A1.365,1.365,0,0,0,385.122,96.156Zm1.9-1.3h-.719l-.515-.406-.521.406h-.725l.769-.7h.941Zm-.8-1.859.58.391-1,.543-.515-.167Z" transform="translate(-319.666 -77.456)" fill="#161920"/>
    <path id="Path_2029" data-name="Path 2029" d="M413.211,98.433a.431.431,0,0,1,.119.311.421.421,0,1,1-.841,0,.421.421,0,0,1,.722-.311Zm-.635,1.406h.669v3.834h-.669Z" transform="translate(-343.543 -81.878)" fill="#161920"/>
    <path id="Path_2030" data-name="Path 2030" d="M439.531,99.988a1.691,1.691,0,0,1,.652.689,2.34,2.34,0,0,1,0,2.019,1.66,1.66,0,0,1-.645.682,1.864,1.864,0,0,1-.954.242,1.743,1.743,0,0,1-.854-.2,1.445,1.445,0,0,1-.58-.58v.76h-.669V98.22h.669v2.3a1.454,1.454,0,0,1,.575-.58,1.715,1.715,0,0,1,.846-.2A1.859,1.859,0,0,1,439.531,99.988Zm-.425,2.875a1.18,1.18,0,0,0,.458-.486,1.49,1.49,0,0,0,.167-.7,1.464,1.464,0,0,0-.167-.7,1.228,1.228,0,0,0-1.116-.659,1.266,1.266,0,0,0-.669.167,1.227,1.227,0,0,0-.461.485,1.567,1.567,0,0,0,0,1.4,1.232,1.232,0,0,0,.461.483,1.351,1.351,0,0,0,1.325,0Z" transform="translate(-363.525 -81.803)" fill="#161920"/>
    <path id="Path_2031" data-name="Path 2031" d="M468.43,107.46v3.834h-.682v-.811a1.447,1.447,0,0,1-1.421.836,1.369,1.369,0,0,1-1.043-.394,1.5,1.5,0,0,1-.378-1.091V107.46h.682v2.19a1.037,1.037,0,0,0,.264.757.972.972,0,0,0,.729.272,1.075,1.075,0,0,0,.851-.381,1.424,1.424,0,0,0,.316-.953V107.46Z" transform="translate(-387.197 -89.499)" fill="#161920"/>
    <path id="Path_2032" data-name="Path 2032" d="M494.542,99.7a1.79,1.79,0,0,1,.7.685,2.144,2.144,0,0,1,0,2.006,1.778,1.778,0,0,1-.7.689,2.252,2.252,0,0,1-2.046,0,1.781,1.781,0,0,1-.7-.685,2.151,2.151,0,0,1,0-2.016,1.791,1.791,0,0,1,.7-.685,2.252,2.252,0,0,1,2.046,0Zm-1.69.515a1.209,1.209,0,0,0-.456.483,1.47,1.47,0,0,0-.167.7,1.5,1.5,0,0,0,.167.71,1.17,1.17,0,0,0,.456.483,1.311,1.311,0,0,0,.669.167,1.3,1.3,0,0,0,.669-.167,1.17,1.17,0,0,0,.456-.483,1.5,1.5,0,0,0,.167-.71,1.47,1.47,0,0,0-.167-.7,1.211,1.211,0,0,0-.456-.483,1.281,1.281,0,0,0-.669-.167A1.3,1.3,0,0,0,492.852,100.212Zm1.782-1.377h-.669l-.443-.485-.443.485h-.669l.762-.964h.71Z" transform="translate(-409.39 -81.512)" fill="#161920"/>
    <path id="Path_2033" data-name="Path 2033" d="M523.989,107.708a1.5,1.5,0,0,1,.383,1.091v2.37H523.7v-2.19a.941.941,0,0,0-1.021-1.028,1.152,1.152,0,0,0-.836.334,1.3,1.3,0,0,0-.368.836v2.048h-.669v-3.834h.669v.812a1.484,1.484,0,0,1,1.458-.836A1.415,1.415,0,0,1,523.989,107.708Z" transform="translate(-433.759 -89.374)" fill="#161920"/>
    <path id="Path_2034" data-name="Path 2034" d="M557,100h.745l1.671,4.3,1.672-4.3h.732l-2.059,5.081h-.724Z" transform="translate(-463.9 -83.286)" fill="#161920"/>
    <path id="Path_2035" data-name="Path 2035" d="M594.01,100h.691v5.081H594l-2.9-3.928v3.928h-.7V100h.7l2.908,3.943Z" transform="translate(-491.718 -83.286)" fill="#161920"/>
    <path id="Path_2036" data-name="Path 2036" d="M621.475,100h.819l1.337,1.892L624.969,100h.819l-1.719,2.437,1.864,2.638H625.1l-1.471-2.051-1.457,2.051h-.819l1.855-2.609Z" transform="translate(-517.495 -83.286)" fill="#161920"/>
    <path id="Path_2037" data-name="Path 2037" d="M658.47,105.081h-.836l-1.783-2.34-.934,1.016v1.325h-.7V100h.7v2.841L657.511,100h.836l-2.006,2.19Z" transform="translate(-544.87 -83.286)" fill="#161920"/>
    <path id="Path_2038" data-name="Path 2038" d="M698.076,99.286h-.53V103.6h-.669v-.789a1.626,1.626,0,0,1-.6.608,1.672,1.672,0,0,1-.849.217,1.839,1.839,0,0,1-.946-.242,1.7,1.7,0,0,1-.648-.669,2.185,2.185,0,0,1,0-1.961,1.711,1.711,0,0,1,.642-.669,1.839,1.839,0,0,1,.939-.239,1.691,1.691,0,0,1,.856.221,1.67,1.67,0,0,1,.608.605v-1.4h-1.559v-.421h1.559V98.22h.669v.645h.53Zm-1.839,3.6a1.178,1.178,0,0,0,.465-.463,1.444,1.444,0,0,0,0-1.349,1.2,1.2,0,0,0-.465-.468,1.4,1.4,0,0,0-1.337,0,1.212,1.212,0,0,0-.46.468,1.444,1.444,0,0,0,0,1.349,1.189,1.189,0,0,0,.46.463,1.421,1.421,0,0,0,1.337,0Z" transform="translate(-577.669 -81.803)" fill="#161920"/>
    <path id="Path_2039" data-name="Path 2039" d="M726.3,95.92a2.158,2.158,0,0,1,.456,1.461V97.6h-3.037a1.314,1.314,0,0,0,.431.821,1.279,1.279,0,0,0,.866.3,1.63,1.63,0,0,0,.635-.124,1.542,1.542,0,0,0,.511-.348l.369.384a1.965,1.965,0,0,1-.682.471,2.284,2.284,0,0,1-.884.167,2.036,2.036,0,0,1-1-.242,1.691,1.691,0,0,1-.68-.685,2.194,2.194,0,0,1,0-2.006,1.754,1.754,0,0,1,.669-.689,1.955,1.955,0,0,1,.993-.251A1.682,1.682,0,0,1,726.3,95.92Zm-.145-1.061h-.725l-.513-.406-.523.406h-.724l.767-.7h.938Zm0,2.218a1.112,1.112,0,0,0-1.189-1.123,1.218,1.218,0,0,0-.846.3,1.279,1.279,0,0,0-.4.819ZM724.412,93l.943.776-.515.167-1-.543Z" transform="translate(-602.186 -77.456)" fill="#161920"/>
    <path id="Path_2040" data-name="Path 2040" d="M753.51,107.46v3.834h-.682v-.811a1.448,1.448,0,0,1-1.421.836,1.369,1.369,0,0,1-1.043-.394,1.5,1.5,0,0,1-.378-1.091V107.46h.682v2.19a1.035,1.035,0,0,0,.264.757.971.971,0,0,0,.729.272,1.075,1.075,0,0,0,.851-.381,1.424,1.424,0,0,0,.316-.953V107.46Z" transform="translate(-624.628 -89.499)" fill="#161920"/>
    <path id="Path_2041" data-name="Path 2041" d="M792.359,98.124a1,1,0,0,1-.214.642.948.948,0,0,1-.577.344,1.9,1.9,0,0,1,.4,1.225,2.006,2.006,0,0,1-.251,1,1.776,1.776,0,0,1-.7.689,2.248,2.248,0,0,1-2.044,0,1.773,1.773,0,0,1-.7-.685,2.152,2.152,0,0,1,0-2.016,1.785,1.785,0,0,1,.7-.685A2.083,2.083,0,0,1,790,98.4a2.126,2.126,0,0,1,.986.224.754.754,0,0,0,.3.059.433.433,0,0,0,.353-.152.575.575,0,0,0,.125-.378.807.807,0,0,0-.159-.478l.565-.211A1.364,1.364,0,0,1,792.359,98.124Zm-1.693,3.411a1.17,1.17,0,0,0,.456-.483,1.5,1.5,0,0,0,.167-.71,1.473,1.473,0,0,0-.167-.7,1.21,1.21,0,0,0-.456-.483,1.281,1.281,0,0,0-.669-.167,1.3,1.3,0,0,0-.669.167,1.21,1.21,0,0,0-.456.483,1.474,1.474,0,0,0-.167.7,1.507,1.507,0,0,0,.167.71,1.17,1.17,0,0,0,.456.483,1.31,1.31,0,0,0,.669.167A1.3,1.3,0,0,0,790.666,101.536Zm-.2-4.774a.5.5,0,0,1,.2.428.858.858,0,0,1-.145.441,1.769,1.769,0,0,1-.376.435l-.378-.167a1.193,1.193,0,0,0,.232-.3.618.618,0,0,0,.087-.286.2.2,0,0,0-.073-.167.248.248,0,0,0-.167-.065.511.511,0,0,0-.282.094l-.224-.363a1.14,1.14,0,0,1,.645-.2A.777.777,0,0,1,790.467,96.762Z" transform="translate(-656.315 -80.461)" fill="#161920"/>
    <path id="Path_2042" data-name="Path 2042" d="M832.136,99.286h-.53V103.6h-.669v-.789a1.629,1.629,0,0,1-.6.608,1.671,1.671,0,0,1-.849.217,1.838,1.838,0,0,1-.946-.242,1.693,1.693,0,0,1-.649-.669,2.184,2.184,0,0,1,0-1.961,1.688,1.688,0,0,1,.642-.669,1.828,1.828,0,0,1,.938-.239,1.667,1.667,0,0,1,1.466.826v-1.4h-1.56v-.421h1.56V98.22h.669v.645h.53Zm-1.839,3.6a1.19,1.19,0,0,0,.465-.463,1.444,1.444,0,0,0,0-1.349,1.213,1.213,0,0,0-.465-.468,1.4,1.4,0,0,0-1.337,0,1.212,1.212,0,0,0-.46.468,1.444,1.444,0,0,0,0,1.349,1.188,1.188,0,0,0,.46.463,1.421,1.421,0,0,0,1.337,0Z" transform="translate(-689.321 -81.803)" fill="#161920"/>
    <path id="Path_2043" data-name="Path 2043" d="M860.069,103.307v-.537a1.567,1.567,0,0,1-1.337.567,1.54,1.54,0,0,1-.7-.152,1.11,1.11,0,0,1-.627-1.023.983.983,0,0,1,.379-.816,1.705,1.705,0,0,1,1.061-.308h1.218v-.182a.8.8,0,0,0-.249-.627,1.07,1.07,0,0,0-.729-.221,2.081,2.081,0,0,0-1.182.413l-.282-.463a3.507,3.507,0,0,1,.764-.389,2.641,2.641,0,0,1,.836-.119,1.611,1.611,0,0,1,1.11.351,1.277,1.277,0,0,1,.4.983v2.522Zm.2-4.473H859.6l-.441-.485-.443.485h-.669l.76-.964h.706Zm-.6,3.716a.9.9,0,0,0,.394-.605v-.376h-1.123a1.337,1.337,0,0,0-.679.137.476.476,0,0,0-.221.436.567.567,0,0,0,.226.471.958.958,0,0,0,.6.167A1.377,1.377,0,0,0,859.668,102.55Z" transform="translate(-714.094 -81.512)" fill="#161920"/>
    <path id="Path_2044" data-name="Path 2044" d="M881.163,112.539a1.155,1.155,0,0,1-.707.224,1.25,1.25,0,0,1-.836-.3l.291-.528a.876.876,0,0,0,.513.181.7.7,0,0,0,.653-.493l.145-.334-1.588-3.791h.71l1.217,3.074,1.153-3.074h.689l-1.755,4.379a1.533,1.533,0,0,1-.486.66Z" transform="translate(-732.596 -89.532)" fill="#161920"/>
    <path id="Path_2045" data-name="Path 2045" d="M905.336,104.846a.41.41,0,0,1,.114.3.424.424,0,0,1-.114.3.37.37,0,0,1-.279.119.383.383,0,0,1-.282-.119.417.417,0,0,1-.115-.3.4.4,0,0,1,.115-.3.386.386,0,0,1,.282-.115.373.373,0,0,1,.279.115Zm-.605-4.346h.654v1.239l-.11,2.2h-.441l-.1-2.2Z" transform="translate(-753.45 -83.702)" fill="#161920"/>
  </g>
</svg>
