<svg xmlns="http://www.w3.org/2000/svg" xmlns:xlink="http://www.w3.org/1999/xlink" width="40" height="40" viewBox="0 0 40 40">
  <defs>
    <clipPath id="clip-path">
      <rect id="Rectangle_1258" data-name="Rectangle 1258" width="26" height="26" transform="translate(164 602)" fill="#fff"/>
    </clipPath>
  </defs>
  <g id="Group_3875" data-name="Group 3875" transform="translate(-89.25 -415.101)">
    <circle id="Ellipse_1" data-name="Ellipse 1" cx="20" cy="20" r="20" transform="translate(89.25 455.101) rotate(-90)" fill="#00b14f"/>
    <g id="Mask_Group_11" data-name="Mask Group 11" transform="translate(-67.5 -180)" clip-path="url(#clip-path)">
      <g id="noun_cost_2011183" transform="translate(164.317 603.268)">
        <g id="Group_3594" data-name="Group 3594" transform="translate(0 0)">
          <path id="Path_1928" data-name="Path 1928" d="M16.41,68.89a17.754,17.754,0,0,1-2.05-.453,2.268,2.268,0,0,1-1.944.133,3.612,3.612,0,0,1-.612-.24c-.506-.266-1.092-.639-1.731-1.038-.053-.027-.08-.053-.133-.08a.384.384,0,0,1-.16-.479.352.352,0,0,1,.533-.16.557.557,0,0,1,.16.107,11.951,11.951,0,0,0,2.157,1.225c1.038.32,1.624-.107,1.811-.639a.873.873,0,0,0-.426-1.172A20.273,20.273,0,0,1,11.83,64.87a17.065,17.065,0,0,0-2.4-1.3,10.449,10.449,0,0,0-4.207-.346c-.852.08-1.811.24-2.4.32a.538.538,0,0,0-.453.612l.586,3.382a.573.573,0,0,0,.639.373l.959-.16a.659.659,0,0,1,.612.213,17.684,17.684,0,0,0,3.062,2.53c1.837,1.092,6.684.8,8.121.639A1.12,1.12,0,0,0,16.41,68.89Z" transform="translate(-2.369 -48.015)" fill="#fff"/>
          <path id="Path_1929" data-name="Path 1929" d="M55.477,10.109a.52.52,0,0,0-.612-.426l-.959.16a.659.659,0,0,1-.612-.213A17.684,17.684,0,0,0,50.231,7.1c-1.837-1.092-6.684-.8-8.121-.639a1.106,1.106,0,0,0-.053,2.21,17.754,17.754,0,0,1,2.05.453,2.268,2.268,0,0,1,1.944-.133,3.612,3.612,0,0,1,.612.24c.506.266,1.092.639,1.731,1.038.053.027.08.053.133.08a.384.384,0,0,1,.16.479.352.352,0,0,1-.533.16.557.557,0,0,1-.16-.107,11.952,11.952,0,0,0-2.157-1.225c-1.038-.32-1.624.107-1.811.639a.873.873,0,0,0,.426,1.172,20.272,20.272,0,0,1,2.183,1.225,17.065,17.065,0,0,0,2.4,1.3,10.449,10.449,0,0,0,4.207.346c.852-.08,1.811-.24,2.4-.32a.538.538,0,0,0,.453-.612Z" transform="translate(-30.732 -6.302)" fill="#fff"/>
          <path id="Path_1930" data-name="Path 1930" d="M37.307,32.7a4.607,4.607,0,1,0,4.607,4.607A4.625,4.625,0,0,0,37.307,32.7Zm.4,6.9v.586a.115.115,0,0,1-.107.107H37.04a.115.115,0,0,1-.107-.107v-.559a1.149,1.149,0,0,1-1.092-1.065.115.115,0,0,1,.107-.107h.559c.053,0,.107.027.107.08a.373.373,0,0,0,.373.32h.506a.579.579,0,0,0,.586-.506.56.56,0,0,0-.559-.612h-.373a1.41,1.41,0,0,1-1.411-1.225,1.323,1.323,0,0,1,1.172-1.465v-.559a.115.115,0,0,1,.107-.107h.559a.115.115,0,0,1,.107.107v.559a1.149,1.149,0,0,1,1.092,1.065.115.115,0,0,1-.107.107h-.559c-.053,0-.107-.027-.107-.08a.373.373,0,0,0-.373-.32H37.12a.579.579,0,0,0-.586.506.56.56,0,0,0,.559.612h.426a1.344,1.344,0,0,1,1.331,1.491A1.384,1.384,0,0,1,37.706,39.6Z" transform="translate(-24.624 -25.671)" fill="#fff"/>
        </g>
      </g>
    </g>
  </g>
</svg>
